<svg width="500" height="500" viewBox="0 0 500 500" fill="none" xmlns="http://www.w3.org/2000/svg">
<path d="M46.0699 158.11C47.2499 162.79 46.6699 154.18 48.9799 143.66C51.2899 133.14 55.2599 137.4 55.2599 137.4" stroke="#263238" stroke-linecap="round" stroke-linejoin="round"/>
<path d="M45.35 147.36L52.6 144.39" stroke="#263238" stroke-linecap="round" stroke-linejoin="round"/>
<path d="M58.59 140.82C58.59 140.82 54.26 149.82 60.79 153.6" stroke="#263238" stroke-linecap="round" stroke-linejoin="round"/>
<path d="M64.74 138.3C64.74 138.3 71.9 142.3 67.42 150.88" stroke="#263238" stroke-linecap="round" stroke-linejoin="round"/>
<path d="M59.84 143.86L64.97 147.6" stroke="#263238" stroke-linecap="round" stroke-linejoin="round"/>
<path d="M63.86 142.21L59.85 148.6" stroke="#263238" stroke-linecap="round" stroke-linejoin="round"/>
<path d="M86.8971 237.984C87.8729 232.038 83.8438 226.427 77.898 225.451C71.9521 224.475 66.3409 228.504 65.3651 234.45C64.3893 240.396 68.4184 246.007 74.3642 246.983C80.3101 247.959 85.9213 243.93 86.8971 237.984Z" stroke="#263238" stroke-linecap="round" stroke-linejoin="round"/>
<path d="M93.3686 252.338C99.915 250.995 104.134 244.6 102.791 238.053C101.448 231.507 95.0531 227.289 88.5067 228.631C81.9603 229.974 77.7418 236.369 79.0844 242.915C80.4269 249.462 86.8222 253.68 93.3686 252.338Z" stroke="#263238" stroke-linecap="round" stroke-linejoin="round"/>
<path d="M86.07 231.71L81.05 233.5" stroke="#263238" stroke-linecap="round" stroke-linejoin="round"/>
<path d="M86.77 233.78L79.55 236.39" stroke="#263238" stroke-linecap="round" stroke-linejoin="round"/>
<path d="M87.04 236.28L78.98 239.38" stroke="#263238" stroke-linecap="round" stroke-linejoin="round"/>
<path d="M86.47 239.69L79.12 243.05" stroke="#263238" stroke-linecap="round" stroke-linejoin="round"/>
<path d="M85.17 242.31L79.59 244.63" stroke="#263238" stroke-linecap="round" stroke-linejoin="round"/>
<path d="M81.4 219.59C81.09 218.59 77.55 217.97 77.4 220.59C77.25 223.21 81.13 221.03 82.23 219.59C82.23 219.59 80.23 222.28 81.07 222.81" stroke="#263238" stroke-linecap="round" stroke-linejoin="round"/>
<path d="M101 222.85L97.86 229.38C97.86 229.38 99.43 226.11 101.11 226.38C103.18 226.75 101.8 230.14 99.3 228.89" stroke="#263238" stroke-linecap="round" stroke-linejoin="round"/>
<path d="M442.71 329.47L447.64 334.13" stroke="#263238" stroke-linecap="round" stroke-linejoin="round"/>
<path d="M447.64 328.25L443.51 334.42" stroke="#263238" stroke-linecap="round" stroke-linejoin="round"/>
<path d="M452.49 330.02L457.43 328.18" stroke="#263238" stroke-linecap="round" stroke-linejoin="round"/>
<path d="M459.8 323.04L462.8 325.69" stroke="#263238" stroke-linecap="round" stroke-linejoin="round"/>
<path d="M465.1 319.85L461.3 332.89" stroke="#263238" stroke-linecap="round" stroke-linejoin="round"/>
<path d="M234.97 256.22L248.24 247.09L265.81 248.32L266.91 270.6L254.01 279.82L238.09 278.66L234.97 256.22Z" stroke="#263238" stroke-linecap="round" stroke-linejoin="round"/>
<path d="M238.09 278.66L250.94 269.41L266.91 270.6" stroke="#263238" stroke-linecap="round" stroke-linejoin="round"/>
<path d="M250.94 269.41L248.24 247.09" stroke="#263238" stroke-linecap="round" stroke-linejoin="round"/>
<path d="M234.97 256.22L252.5 258.25L265.81 248.32" stroke="#263238" stroke-linecap="round" stroke-linejoin="round"/>
<path d="M252.5 258.25L254.01 279.82" stroke="#263238" stroke-linecap="round" stroke-linejoin="round"/>
<path d="M389.85 181.37L383.97 199.64L402.27 197.17L389.85 181.37Z" stroke="#263238" stroke-linecap="round" stroke-linejoin="round"/>
<path d="M389.85 181.37L393.12 198.3" stroke="#263238" stroke-linecap="round" stroke-linejoin="round"/>
<path d="M392.6 195.59L394.74 195.25L395.24 198.12" stroke="#263238" stroke-linecap="round" stroke-linejoin="round"/>
<path d="M159.39 348.56L168.53 353.05" stroke="#263238" stroke-linecap="round" stroke-linejoin="round"/>
<path d="M165.58 345.13L162.96 354.68" stroke="#263238" stroke-linecap="round" stroke-linejoin="round"/>
<path d="M166.85 340.47C167 340.315 167.184 340.197 167.388 340.126C167.592 340.055 167.809 340.032 168.023 340.06C168.237 340.089 168.441 340.167 168.62 340.288C168.798 340.41 168.945 340.571 169.05 340.76C169.97 342.2 168.17 345.22 168.17 345.22L171.84 343.82" stroke="#263238" stroke-linecap="round" stroke-linejoin="round"/>
<path d="M231.15 34C239.88 38.91 229.88 50.91 229.88 57.91C229.88 64.91 239.88 63.91 244.88 65.91C246.88 65.91 250.88 65.91 250.77 70.99" stroke="#263238" stroke-linecap="round" stroke-linejoin="round"/>
<path d="M221.42 40.37C222.94 48.64 232.42 45.71 238.24 47.6C248.24 50.85 242.69 61.17 239.71 67.41C237.92 71.13 236.14 76.35 239.34 79.88" stroke="#263238" stroke-linecap="round" stroke-linejoin="round"/>
<path d="M222.7 43.58L233.11 34.93" stroke="#263238" stroke-linecap="round" stroke-linejoin="round"/>
<path d="M226.78 46.16L234.62 39.66" stroke="#263238" stroke-linecap="round" stroke-linejoin="round"/>
<path d="M231.39 52.74L238.01 47.54" stroke="#263238" stroke-linecap="round" stroke-linejoin="round"/>
<path d="M230.02 60.52L242.96 51.22" stroke="#263238" stroke-linecap="round" stroke-linejoin="round"/>
<path d="M234.98 64.15L244 57.53" stroke="#263238" stroke-linecap="round" stroke-linejoin="round"/>
<path d="M238.82 78.22L250.09 69.04" stroke="#263238" stroke-linecap="round" stroke-linejoin="round"/>
<path d="M239.1 71L246.45 65.83" stroke="#263238" stroke-linecap="round" stroke-linejoin="round"/>
<path d="M91.9511 353.542C102.689 349.247 107.912 337.061 103.617 326.323C99.3223 315.585 87.136 310.362 76.3982 314.657C65.6604 318.951 60.4373 331.138 64.7321 341.876C69.0269 352.613 81.2133 357.836 91.9511 353.542Z" stroke="#263238" stroke-linecap="round" stroke-linejoin="round"/>
<path d="M89.44 313.84C96.74 305.27 102.95 300.42 105.34 302C108.98 304.39 102.45 320.71 90.76 338.44C79.07 356.17 66.64 368.61 63 366.21C60.6 364.64 62.62 357.02 67.62 346.93" stroke="#263238" stroke-linecap="round" stroke-linejoin="round"/>
<path d="M63.68 338.4C53.5 335.47 47 332.05 47.41 329.32C48 325 65.59 324 86.6 327.15C107.61 330.3 124.13 336.27 123.5 340.57C123.05 343.57 114.5 344.94 102.35 344.48" stroke="#263238" stroke-linecap="round" stroke-linejoin="round"/>
<path d="M66.35 323.23C58.67 309.37 54.83 298.56 57.43 296.87C60.85 294.66 74.07 309 86.96 328.87C99.85 348.74 107.52 366.7 104.11 368.92C101.85 370.38 95.3 364.6 87.39 354.76" stroke="#263238" stroke-linecap="round" stroke-linejoin="round"/>
<path d="M108.29 311.06C107.917 311.628 107.384 312.074 106.758 312.339C106.133 312.605 105.442 312.68 104.774 312.553C104.106 312.427 103.491 312.105 103.005 311.629C102.52 311.153 102.186 310.544 102.047 309.879C101.907 309.214 101.968 308.522 102.221 307.891C102.475 307.26 102.91 306.719 103.471 306.334C104.032 305.95 104.694 305.741 105.373 305.733C106.053 305.725 106.72 305.919 107.29 306.29C107.669 306.537 107.996 306.856 108.252 307.23C108.508 307.604 108.688 308.024 108.78 308.467C108.873 308.91 108.878 309.368 108.794 309.813C108.709 310.257 108.538 310.681 108.29 311.06Z" fill="#263238"/>
<path d="M96.9 363.75C96.5271 364.318 95.9942 364.764 95.3684 365.029C94.7427 365.295 94.0522 365.37 93.3842 365.243C92.7162 365.117 92.1007 364.795 91.6152 364.32C91.1298 363.844 90.7963 363.234 90.6568 362.569C90.5173 361.904 90.5781 361.212 90.8315 360.581C91.0849 359.95 91.5195 359.409 92.0805 359.025C92.6415 358.641 93.3037 358.431 93.9835 358.423C94.6633 358.416 95.3302 358.609 95.9 358.98C96.2795 359.227 96.6065 359.546 96.8623 359.92C97.118 360.294 97.2975 360.714 97.3904 361.157C97.4833 361.601 97.4878 362.058 97.4037 362.503C97.3195 362.947 97.1484 363.371 96.9 363.75Z" fill="#263238"/>
<path d="M78.52 328C78.1471 328.568 77.6142 329.014 76.9884 329.279C76.3627 329.545 75.6722 329.62 75.0042 329.493C74.3362 329.367 73.7207 329.045 73.2352 328.57C72.7498 328.094 72.4163 327.484 72.2768 326.819C72.1373 326.154 72.1981 325.462 72.4515 324.831C72.7049 324.2 73.1395 323.659 73.7005 323.275C74.2615 322.891 74.9237 322.681 75.6035 322.673C76.2833 322.666 76.9502 322.859 77.52 323.23C78.2843 323.731 78.8189 324.514 79.0064 325.408C79.1938 326.302 79.0189 327.235 78.52 328Z" fill="#263238"/>
<path d="M297.83 178.32H309.61L315.5 168.12L309.61 157.92H297.83L291.94 168.12L297.83 178.32Z" stroke="#263238" stroke-linecap="round" stroke-linejoin="round"/>
<path d="M296.12 200.71L290.23 190.51H278.45" stroke="#263238" stroke-linecap="round" stroke-linejoin="round"/>
<path d="M280.03 168.12H291.81L297.7 157.92L291.81 147.71H280.03L274.14 157.92L280.03 168.12Z" stroke="#263238" stroke-linecap="round" stroke-linejoin="round"/>
<path d="M297.83 157.92H309.61L315.5 147.71L309.61 137.51H297.83L291.94 147.71L297.83 157.92Z" stroke="#263238" stroke-linecap="round" stroke-linejoin="round"/>
<path d="M297.7 159.5C298.573 159.5 299.28 158.793 299.28 157.92C299.28 157.047 298.573 156.34 297.7 156.34C296.827 156.34 296.12 157.047 296.12 157.92C296.12 158.793 296.827 159.5 297.7 159.5Z" fill="#263238"/>
<path d="M273.1 138.08C273.973 138.08 274.68 137.373 274.68 136.5C274.68 135.627 273.973 134.92 273.1 134.92C272.227 134.92 271.52 135.627 271.52 136.5C271.52 137.373 272.227 138.08 273.1 138.08Z" fill="#263238"/>
<path d="M294.54 200.71C294.54 200.398 294.633 200.092 294.806 199.832C294.98 199.572 295.227 199.37 295.515 199.25C295.804 199.131 296.122 199.099 296.428 199.16C296.735 199.221 297.016 199.372 297.237 199.593C297.458 199.814 297.609 200.095 297.67 200.402C297.731 200.708 297.699 201.026 297.58 201.315C297.46 201.603 297.258 201.85 296.998 202.024C296.738 202.197 296.432 202.29 296.12 202.29C295.912 202.29 295.707 202.249 295.515 202.17C295.324 202.09 295.149 201.974 295.003 201.827C294.856 201.681 294.74 201.506 294.66 201.315C294.581 201.123 294.54 200.918 294.54 200.71Z" fill="#263238"/>
<path d="M278.45 192.09C279.323 192.09 280.03 191.383 280.03 190.51C280.03 189.637 279.323 188.93 278.45 188.93C277.577 188.93 276.87 189.637 276.87 190.51C276.87 191.383 277.577 192.09 278.45 192.09Z" fill="#263238"/>
<path d="M326.9 148C326.9 147.685 326.993 147.377 327.169 147.116C327.344 146.854 327.593 146.65 327.884 146.53C328.175 146.41 328.495 146.379 328.804 146.441C329.113 146.503 329.396 146.656 329.618 146.879C329.84 147.103 329.99 147.387 330.051 147.696C330.111 148.005 330.078 148.325 329.956 148.615C329.834 148.906 329.629 149.153 329.366 149.327C329.103 149.5 328.795 149.592 328.48 149.59C328.272 149.59 328.065 149.549 327.873 149.469C327.681 149.389 327.506 149.271 327.359 149.124C327.212 148.976 327.096 148.801 327.017 148.608C326.939 148.415 326.899 148.208 326.9 148Z" fill="#263238"/>
<path d="M290.11 192.09C290.983 192.09 291.69 191.383 291.69 190.51C291.69 189.637 290.983 188.93 290.11 188.93C289.237 188.93 288.53 189.637 288.53 190.51C288.53 191.383 289.237 192.09 290.11 192.09Z" fill="#263238"/>
<path d="M313.92 148C313.92 147.686 314.013 147.378 314.188 147.117C314.363 146.855 314.611 146.651 314.901 146.531C315.192 146.411 315.512 146.379 315.82 146.441C316.129 146.502 316.412 146.653 316.634 146.876C316.857 147.098 317.008 147.381 317.069 147.69C317.131 147.998 317.099 148.318 316.979 148.608C316.859 148.899 316.655 149.147 316.393 149.322C316.132 149.497 315.824 149.59 315.51 149.59C315.088 149.59 314.684 149.423 314.386 149.124C314.087 148.826 313.92 148.422 313.92 148Z" fill="#263238"/>
<path d="M296.12 178.33C296.118 178.015 296.21 177.706 296.384 177.443C296.558 177.18 296.806 176.975 297.097 176.853C297.388 176.731 297.708 176.699 298.018 176.76C298.327 176.821 298.611 176.973 298.834 177.196C299.057 177.419 299.209 177.703 299.27 178.012C299.331 178.322 299.299 178.642 299.177 178.933C299.055 179.224 298.85 179.472 298.587 179.646C298.324 179.82 298.015 179.912 297.7 179.91C297.282 179.907 296.881 179.74 296.586 179.444C296.29 179.149 296.123 178.748 296.12 178.33Z" fill="#263238"/>
<path d="M315.51 147.98H328.48" stroke="#263238" stroke-linecap="round" stroke-linejoin="round"/>
<path d="M297.7 178.33L290.11 190.51" stroke="#263238" stroke-linecap="round" stroke-linejoin="round"/>
<path d="M280.03 147.71L273.1 136.5" stroke="#263238" stroke-linecap="round" stroke-linejoin="round"/>
<path d="M363.58 107.5C364.939 102.907 367.771 98.8895 371.639 96.0659C375.507 93.2422 380.197 91.7697 384.985 91.8755C389.774 91.9813 394.394 93.6594 398.134 96.6512C401.874 99.6429 404.525 103.782 405.68 108.43" stroke="#263238" stroke-linecap="round" stroke-linejoin="round"/>
<path d="M382 135.34C376.68 134.731 371.769 132.186 368.204 128.19C364.64 124.193 362.67 119.025 362.67 113.67" stroke="#263238" stroke-linecap="round" stroke-linejoin="round"/>
<path d="M406.31 113.67C406.31 119.453 404.014 124.999 399.926 129.089C395.838 133.178 390.293 135.477 384.51 135.48" stroke="#263238" stroke-linecap="round" stroke-linejoin="round"/>
<path d="M407.55 99.84C414.37 98.97 418.94 99.44 419.65 101.48C421.06 105.54 406.47 114.29 387.06 121.03C367.65 127.77 350.78 129.93 349.36 125.86C348.61 123.69 352.43 120.18 359.11 116.35" stroke="#263238" stroke-linecap="round" stroke-linejoin="round"/>
<path d="M290.11 84.9L292.2 89.13L296.87 89.81L293.49 93.11L294.29 97.76L290.11 95.56L285.93 97.76L286.73 93.11L283.35 89.81L288.02 89.13L290.11 84.9Z" stroke="#263238" stroke-linecap="round" stroke-linejoin="round"/>
<path d="M142.47 73.63C142.467 77.3909 140.973 80.9971 138.314 83.6574C135.656 86.3177 132.051 87.8147 128.29 87.82C127.83 87.82 127.38 87.8 126.94 87.76C124.203 87.5004 121.6 86.4513 119.448 84.7402C117.297 83.0292 115.688 80.7299 114.819 78.1218C113.949 75.5137 113.856 72.7091 114.55 70.049C115.245 67.3889 116.697 64.9878 118.73 63.1377C120.764 61.2875 123.291 60.0678 126.005 59.627C128.718 59.1862 131.502 59.5432 134.016 60.6546C136.531 61.766 138.669 63.5839 140.169 65.8874C141.67 68.1909 142.469 70.8808 142.47 73.63Z" stroke="#263238" stroke-linecap="round" stroke-linejoin="round"/>
<path d="M140.2 76.19C140.202 76.6255 140.075 77.0519 139.834 77.415C139.594 77.7781 139.251 78.0616 138.849 78.2297C138.447 78.3977 138.004 78.4427 137.577 78.3589C137.15 78.2752 136.757 78.0665 136.448 77.7592C136.139 77.4519 135.929 77.0599 135.843 76.6329C135.757 76.2059 135.8 75.763 135.966 75.3604C136.133 74.9578 136.415 74.6137 136.777 74.3715C137.139 74.1293 137.564 74 138 74C138.582 74 139.14 74.2304 139.552 74.6408C139.964 75.0512 140.197 75.6083 140.2 76.19Z" stroke="#263238" stroke-linecap="round" stroke-linejoin="round"/>
<path d="M120.45 81.77C120.451 82.2912 120.336 82.8062 120.115 83.2781C119.894 83.75 119.571 84.1672 119.17 84.5C117.305 82.9607 115.869 80.9665 115 78.71C115.55 78.3721 116.184 78.1954 116.83 78.2C117.303 78.1934 117.773 78.2808 118.212 78.4573C118.65 78.6337 119.05 78.8956 119.387 79.2278C119.724 79.5599 119.991 79.9557 120.174 80.3922C120.356 80.8286 120.45 81.2969 120.45 81.77Z" stroke="#263238" stroke-linecap="round" stroke-linejoin="round"/>
<path d="M138 84C135.378 86.4836 131.902 87.8654 128.29 87.86C127.83 87.86 127.38 87.84 126.94 87.8C126.859 87.4152 126.819 87.0231 126.82 86.63C126.821 85.3006 127.27 84.0104 128.096 82.9684C128.922 81.9265 130.075 81.194 131.369 80.8896C132.663 80.5851 134.022 80.7267 135.226 81.2912C136.429 81.8558 137.407 82.8103 138 84Z" stroke="#263238" stroke-linecap="round" stroke-linejoin="round"/>
<path d="M124.85 68C126.65 68 128.11 66.5404 128.11 64.74C128.11 62.9395 126.65 61.48 124.85 61.48C123.05 61.48 121.59 62.9395 121.59 64.74C121.59 66.5404 123.05 68 124.85 68Z" stroke="#263238" stroke-linecap="round" stroke-linejoin="round"/>
<path d="M127.87 74C127.87 74.2986 127.781 74.5906 127.615 74.8389C127.45 75.0872 127.214 75.2808 126.938 75.3951C126.662 75.5093 126.358 75.5392 126.065 75.481C125.772 75.4227 125.503 75.2789 125.292 75.0677C125.081 74.8565 124.937 74.5875 124.879 74.2946C124.821 74.0017 124.851 73.6981 124.965 73.4221C125.079 73.1462 125.273 72.9104 125.521 72.7445C125.769 72.5786 126.061 72.49 126.36 72.49C126.558 72.49 126.755 72.5291 126.938 72.6049C127.121 72.6808 127.287 72.792 127.428 72.9323C127.568 73.0725 127.679 73.2389 127.755 73.4221C127.831 73.6053 127.87 73.8017 127.87 74Z" stroke="#263238" stroke-linecap="round" stroke-linejoin="round"/>
<path d="M139.8 65.35C139.403 65.4801 138.988 65.5443 138.57 65.54C138.024 65.54 137.484 65.4323 136.98 65.2231C136.475 65.0139 136.017 64.7074 135.632 64.3209C135.246 63.9345 134.941 63.4758 134.733 62.9712C134.525 62.4665 134.419 61.9258 134.42 61.38C134.41 61.2068 134.41 61.0332 134.42 60.86C136.562 61.8812 138.412 63.4253 139.8 65.35Z" stroke="#263238" stroke-linecap="round" stroke-linejoin="round"/>
<path d="M465.85 238.29L467.38 234.85L464.9 233.49C464.991 232.884 465.008 232.27 464.95 231.66L467.49 230.42L466.14 226.91L463.42 227.69C463.055 227.2 462.632 226.757 462.16 226.37L463.09 223.69L459.65 222.16L458.28 224.64C457.672 224.565 457.058 224.565 456.45 224.64L455.22 222.1L451.7 223.45L452.49 226.16C451.999 226.531 451.553 226.957 451.16 227.43L448.49 226.5L447 229.89L449.48 231.26C449.388 231.866 449.372 232.48 449.43 233.09L446.88 234.32L448.23 237.84L450.95 237.05C451.317 237.541 451.74 237.987 452.21 238.38L451.29 241.05L454.73 242.58L456.09 240.1C456.696 240.191 457.31 240.208 457.92 240.15L459.16 242.7L462.67 241.35L461.89 238.63C462.377 238.263 462.82 237.84 463.21 237.37L465.85 238.29ZM455.39 236.37C454.6 236.019 453.933 235.441 453.471 234.711C453.01 233.98 452.775 233.129 452.797 232.265C452.819 231.401 453.097 230.563 453.595 229.857C454.094 229.151 454.79 228.609 455.597 228.299C456.403 227.988 457.284 227.924 458.127 228.114C458.97 228.304 459.737 228.74 460.333 229.366C460.928 229.992 461.325 230.781 461.472 231.633C461.619 232.484 461.511 233.36 461.16 234.15C460.687 235.208 459.815 236.036 458.733 236.452C457.652 236.868 456.45 236.838 455.39 236.37Z" stroke="#263238" stroke-linecap="round" stroke-linejoin="round"/>
<path d="M447.57 255.94L449.65 251.27L446.29 249.41C446.41 248.589 446.43 247.756 446.35 246.93L449.81 245.25L448 240.48L444.31 241.55C443.817 240.881 443.243 240.277 442.6 239.75L443.86 236.11L439.15 234L437.3 237.36C436.479 237.242 435.647 237.219 434.82 237.29L433.14 233.84L428.36 235.68L429.43 239.36C428.766 239.862 428.162 240.439 427.63 241.08L424 239.86L421.92 244.53L425.28 246.39C425.16 247.211 425.14 248.044 425.22 248.87L421.76 250.55L423.6 255.32L427.29 254.26C427.786 254.926 428.36 255.531 429 256.06L427.74 259.69L432.42 261.77L434.27 258.4C435.091 258.523 435.923 258.546 436.75 258.47L438.43 261.92L443.21 260.09L442.14 256.4C442.804 255.901 443.408 255.327 443.94 254.69L447.57 255.94ZM433.37 253.33C432.297 252.852 431.389 252.066 430.763 251.071C430.136 250.077 429.818 248.919 429.85 247.745C429.882 246.57 430.261 245.431 430.94 244.472C431.619 243.513 432.567 242.777 433.665 242.357C434.763 241.937 435.96 241.852 437.106 242.112C438.252 242.373 439.295 242.968 440.102 243.822C440.91 244.675 441.446 245.749 441.644 246.908C441.841 248.066 441.69 249.257 441.21 250.33C440.893 251.042 440.438 251.685 439.872 252.221C439.306 252.758 438.64 253.177 437.912 253.456C437.184 253.735 436.408 253.867 435.629 253.845C434.849 253.824 434.082 253.649 433.37 253.33Z" stroke="#263238" stroke-linecap="round" stroke-linejoin="round"/>
<path d="M240.27 211.61C238.9 214.206 237.353 216.705 235.64 219.09C226.755 231.443 213.7 240.163 198.887 243.639C184.073 247.114 168.502 245.112 155.05 238C153.66 237.27 152.3 236.49 151 235.67C149.7 234.85 148.43 234.01 147.21 233.11C145.73 232.04 144.31 230.9 142.95 229.71C142.863 229.645 142.783 229.571 142.71 229.49C133.848 221.648 127.371 211.471 124.019 200.122C120.666 188.773 120.574 176.71 123.752 165.311C126.93 153.913 133.25 143.638 141.99 135.66C150.731 127.683 161.539 122.325 173.18 120.198C184.821 118.072 196.825 119.263 207.821 123.635C218.817 128.007 228.362 135.384 235.364 144.924C242.367 154.463 246.545 165.779 247.421 177.581C248.298 189.382 245.837 201.191 240.32 211.66L240.27 211.61Z" fill="white"/>
<mask id="mask0_41_258" style="mask-type:luminance" maskUnits="userSpaceOnUse" x="121" y="119" width="127" height="127">
<path d="M240.27 211.61C238.9 214.206 237.353 216.705 235.64 219.09C226.755 231.443 213.7 240.163 198.887 243.639C184.073 247.114 168.502 245.112 155.05 238C153.66 237.27 152.3 236.49 151 235.67C149.7 234.85 148.43 234.01 147.21 233.11C145.73 232.04 144.31 230.9 142.95 229.71C142.863 229.645 142.783 229.571 142.71 229.49C133.848 221.648 127.371 211.471 124.019 200.122C120.666 188.773 120.574 176.71 123.752 165.311C126.93 153.913 133.25 143.638 141.99 135.66C150.731 127.683 161.539 122.325 173.18 120.198C184.821 118.072 196.825 119.263 207.821 123.635C218.817 128.007 228.362 135.384 235.364 144.924C242.367 154.463 246.545 165.779 247.421 177.581C248.298 189.382 245.837 201.191 240.32 211.66L240.27 211.61Z" fill="white"/>
</mask>
<g mask="url(#mask0_41_258)">
<g opacity="0.6">
<path d="M240.27 211.61C238.9 214.206 237.353 216.705 235.64 219.09L234.42 218.09L232.32 216.98L230.11 215.82L230.48 213.15L230.36 210.74C230.23 208.33 231.97 210.3 233.36 209.57C234.444 208.795 235.32 207.765 235.91 206.57C235.91 206.57 236.91 203.36 236.58 202.07C236.042 200.584 235.407 199.134 234.68 197.73L231.1 202.73L228.1 202.5L225.26 201L224.89 197.05L223.43 196.29L222.82 194.02L214.93 191.81L214.03 190.23C213.13 188.65 209.5 187.84 209.5 187.84L210.39 185.78L211.79 183.48C213.2 181.18 214.66 185 214.66 185L216.33 185.87L219.43 183.27L220.25 179.54L225.3 179.83C225.201 179.325 225.278 178.802 225.518 178.347C225.759 177.892 226.147 177.533 226.62 177.33C228.3 176.67 227.56 173.02 226.92 171.67C226.28 170.32 223.92 171.41 223.92 171.41C223.92 171.41 221.35 167.5 221 165.94C220.65 164.38 225.9 164.94 228.15 163.37C230.4 161.8 229.63 158.68 228.53 158.61C227.43 158.54 230.68 151.51 236.93 153.44C238.67 153.98 239.77 153.79 240.45 153.19C245.139 162.219 247.572 172.248 247.541 182.422C247.51 192.596 245.015 202.61 240.27 211.61Z" fill="white"/>
<path d="M196.54 184.56L194.4 187.25C194.4 187.25 193.49 185.08 192.19 186.25L190.19 188.03L188.74 192.09L186.14 193.77L184.55 192.94L183.05 192.14L181.42 191.28L179.86 194.28L178.59 196.68C179.209 197.858 179.979 198.951 180.88 199.93L183.64 204.8L187 206.5C188.401 206.552 189.796 206.719 191.17 207L193.48 208.21L192.66 213.21C192.66 213.21 190.92 216.04 189.76 215.26L188.59 214.49L186.69 221.07L186.61 224.69C186.61 224.69 185.48 225.16 184.34 225.54C183.2 225.92 183.92 225.72 181.53 226.46C179.14 227.2 179.33 227.17 177.39 227.72C175.736 228.299 174.145 229.043 172.64 229.94L172.81 233.42L168.24 234.09L165.68 232.73L166.31 230.53L166.61 227.09L166.26 224.52L165.16 222.25L168.24 219.46L167.56 217.71L165.81 214.23L162.11 216.23L160.21 217.23L155.91 215.3L155.44 212.69L154 208L152.66 205.08L150.28 201.86L149.68 199.09L151.02 196.55L151.73 195.21L149.54 192.26L148.94 190.16L145.25 186.81C145.25 186.81 146.32 186.74 146.08 185.25C145.84 183.76 148.19 181.25 148.19 181.25C149.52 181.95 153.51 184.73 153.51 184.73L157 185.21C157 185.21 157.7 185.21 158.38 183.89C159.174 182.676 160.107 181.558 161.16 180.56C161.16 180.56 159.55 174.97 160.7 174.22C161.85 173.47 163.02 169.81 163.02 169.81L163.94 168.06C163.94 168.06 161.77 167.11 161.36 165.96C160.95 164.81 155.6 166.34 155.6 166.34L151.91 168.9L149 171.15L147.74 173.54C147.74 173.54 145.17 170.45 145.16 172.18C144.964 173.954 144.575 175.701 144 177.39C144 177.39 144.53 177.67 143.83 179.01C143.13 180.35 142.37 180.28 140.83 180.47C138.822 180.49 136.816 180.353 134.83 180.06C134.83 180.06 133.83 183.76 134.52 184.4L135.2 185.02C135.2 185.02 134.13 187.71 133.07 187.15L130.49 185.79L126.88 187.25L122.88 191.67L121.99 191.49C119.538 175.047 123.677 158.301 133.507 144.893C143.336 131.485 158.061 122.499 174.48 119.89C174.71 120.89 174.96 121.83 174.96 121.83L173.96 126.77L172.68 129.21L171.58 131.3L170.03 134.24L174 137.9L173.15 142.23L171 143.58L170.38 146.83L174.07 154.04L175.07 156.87C174.453 158.225 174.148 159.701 174.18 161.19C174.18 161.19 174.63 163.89 176.6 164.96C178.57 166.03 181.16 167.29 181.16 167.29L180.95 171.29L180.06 172.29L181.54 176.6C186.05 178.37 185.62 179.85 186.05 178.37L186.49 176.9L189.56 175.79L193.47 180.46C193.925 180.454 194.374 180.563 194.776 180.776C195.178 180.989 195.52 181.3 195.77 181.68C196.91 183.12 198.69 181.87 196.54 184.56Z" fill="white"/>
<path d="M143.54 219.39C143.65 220.81 141.85 222.59 141.85 222.59L143.32 223.36L143.77 227.36L142.66 229.48C134.795 222.532 128.795 213.724 125.21 203.86L126.01 199.62L129.54 199.12C129.54 199.12 132.7 197.02 134.1 197.58C135.5 198.14 136.78 201.58 136.78 201.58C136.78 201.58 137.78 206.22 137.65 206.13H137.59H137.67L139.11 206.89L139.52 208.72L137.52 212.52H134.3C134.3 212.52 133.66 212.18 133.6 213.85C133.652 214.43 133.828 214.991 134.116 215.497C134.405 216.002 134.798 216.44 135.27 216.78L138.75 215.89L139.68 212.29L143.1 211.62C143.1 211.62 142.61 213.83 143.41 214.25L144.22 214.68L144.7 217.32C144.342 217.533 144.046 217.836 143.842 218.199C143.639 218.563 143.534 218.974 143.54 219.39Z" fill="white"/>
<path d="M160.08 225.05C159.77 224.19 159.64 223.44 157.51 222.32C155.38 221.2 155.51 221.6 154.67 222.53C154.308 223.008 153.814 223.37 153.249 223.571C152.684 223.772 152.072 223.803 151.49 223.66C150.09 223.35 150.82 224.93 150.82 224.93L151.16 229.2L147.21 233.1C148.43 234 149.693 234.853 151 235.66L151.84 233.08L158.4 235C157.01 234.59 157.83 232.69 157.83 232.69L156.43 231.95C156.43 231.95 160.39 225.89 160.08 225.05Z" fill="white"/>
<path d="M201.4 202.85L199.25 200.68L196.79 201.45L195.79 203.45L195.04 204.89L196.04 206.89L198.04 209.32L199.18 207.14C199.18 207.14 202.35 207.14 204.01 205.31C205.67 203.48 201.4 202.85 201.4 202.85Z" fill="white"/>
<path d="M195.08 193.06L199.08 195.16L199.24 194.22C199.448 193.467 199.817 192.768 200.32 192.17L197.26 188.93L195.08 193.06Z" fill="white"/>
<path d="M193.72 239.61L192.57 237.92L191.23 237.22H187.14L184.81 241.64C184.81 241.64 182.58 241.34 179.65 241.08C176.72 240.82 177.44 242.03 177.44 242.03L176.68 244.81C184.072 245.72 191.568 245.317 198.82 243.62C197.977 243.032 197.102 242.491 196.2 242L193.72 239.61Z" fill="white"/>
</g>
</g>
<path d="M240.27 211.61C238.9 214.206 237.353 216.705 235.64 219.09C226.755 231.443 213.7 240.163 198.887 243.639C184.073 247.114 168.502 245.112 155.05 238C153.66 237.27 152.3 236.49 151 235.67C149.7 234.85 148.43 234.01 147.21 233.11C145.73 232.04 144.31 230.9 142.95 229.71C142.863 229.645 142.783 229.571 142.71 229.49C133.848 221.648 127.371 211.471 124.019 200.122C120.666 188.773 120.574 176.71 123.752 165.311C126.93 153.913 133.25 143.638 141.99 135.66C150.731 127.683 161.539 122.325 173.18 120.198C184.821 118.072 196.825 119.263 207.821 123.635C218.817 128.007 228.362 135.384 235.364 144.924C242.367 154.463 246.545 165.779 247.421 177.581C248.298 189.382 245.837 201.191 240.32 211.66L240.27 211.61Z" stroke="#263238" stroke-linecap="round" stroke-linejoin="round"/>
<path d="M198.82 243.62C191.568 245.317 184.072 245.72 176.68 244.81L177.44 242.03C177.44 242.03 176.72 240.82 179.65 241.08C182.58 241.34 184.81 241.64 184.81 241.64L187.14 237.22H191.23L192.57 237.92L193.72 239.61L196.2 242C197.102 242.491 197.977 243.032 198.82 243.62Z" stroke="#263238" stroke-linecap="round" stroke-linejoin="round"/>
<path d="M240.49 153.2C239.81 153.8 238.71 153.99 236.97 153.45C230.72 151.52 227.48 158.54 228.57 158.62C229.66 158.7 230.43 161.86 228.19 163.38C225.95 164.9 220.69 164.38 221.04 165.95C221.39 167.52 223.96 171.42 223.96 171.42C223.96 171.42 226.26 170.34 226.91 171.68C227.56 173.02 228.3 176.68 226.62 177.34C226.147 177.543 225.759 177.902 225.518 178.357C225.278 178.812 225.201 179.335 225.3 179.84L220.25 179.55L219.43 183.28L216.33 185.88L214.66 185.01C214.66 185.01 213.2 181.19 211.79 183.49L210.39 185.79L209.5 187.85C209.5 187.85 213.13 188.66 214.03 190.24L214.93 191.82L222.82 194.03L223.43 196.3L224.89 197.06L225.26 201.01L228.2 202.55L231.2 202.78L234.78 197.78C235.507 199.184 236.142 200.634 236.68 202.12C237.03 203.41 236.01 206.62 236.01 206.62C235.42 207.815 234.544 208.845 233.46 209.62C232.03 210.35 230.28 208.38 230.46 210.79L230.58 213.2L230.21 215.87L232.42 217.03L234.52 218.14L235.74 219.14" stroke="#263238" stroke-linecap="round" stroke-linejoin="round"/>
<path d="M122.07 191.49L122.96 191.67L126.96 187.25L130.57 185.79L133.15 187.15C134.21 187.71 135.28 185.02 135.28 185.02L134.6 184.4C133.91 183.76 134.91 180.06 134.91 180.06C136.896 180.353 138.902 180.49 140.91 180.47C142.49 180.28 143.24 180.34 143.91 179.01C144.58 177.68 144.08 177.39 144.08 177.39C144.655 175.701 145.044 173.954 145.24 172.18C145.24 170.45 147.82 173.54 147.82 173.54L149.08 171.15L151.9 168.91L155.59 166.35C155.59 166.35 160.94 164.81 161.35 165.97C161.76 167.13 163.93 168.07 163.93 168.07L163.01 169.82C163.01 169.82 161.83 173.46 160.69 174.23C159.55 175 161.15 180.57 161.15 180.57C160.097 181.568 159.164 182.686 158.37 183.9C157.67 185.24 156.99 185.22 156.99 185.22L153.5 184.74C153.5 184.74 149.5 181.96 148.18 181.26C148.18 181.26 145.83 183.77 146.07 185.26C146.31 186.75 145.24 186.82 145.24 186.82L148.93 190.17L149.53 192.27L151.72 195.22L151.01 196.56L149.67 199.1L150.27 201.87L152.65 205.09L154 208L155.46 212.71L155.93 215.32L160.23 217.25L162.13 216.25L165.83 214.25L167.58 217.73L168.26 219.48L165.18 222.27L166.28 224.54L166.63 227.11L166.33 230.55L165.7 232.75L168.26 234.11L172.83 233.45L172.66 229.96C174.165 229.063 175.756 228.319 177.41 227.74C179.35 227.19 179.16 227.22 181.55 226.48C183.94 225.74 183.21 225.94 184.36 225.56C185.51 225.18 186.63 224.71 186.63 224.71L186.71 221.09L188.61 214.51L189.78 215.28C190.94 216.06 192.68 213.23 192.68 213.23L193.5 208.23L191.14 207C189.766 206.719 188.371 206.552 186.97 206.5L183.68 204.77L180.92 199.9C180.019 198.921 179.249 197.828 178.63 196.65L179.9 194.25L181.46 191.25L183.09 192.11L184.59 192.91L186.18 193.74L188.78 192.06L190.23 188L192.23 186.22C193.53 185.04 194.44 187.22 194.44 187.22L196.58 184.53C198.73 181.84 196.95 183.09 195.85 181.71C195.6 181.33 195.258 181.019 194.856 180.806C194.454 180.592 194.005 180.484 193.55 180.49L189.64 175.82L186.53 177L186.09 178.47C185.66 179.95 186.09 178.47 181.58 176.7L180.1 172.39L180.99 171.39L181.2 167.39C181.2 167.39 178.61 166.12 176.64 165.06C174.67 164 174.22 161.29 174.22 161.29C174.188 159.801 174.493 158.325 175.11 156.97L174.11 154.14L170.42 146.93L171.04 143.68L173.19 142.33L174.04 138L170.18 134.34L171.73 131.4L172.83 129.31L174.11 126.87L175.11 121.93C175.11 121.93 174.86 121.01 174.63 119.99" stroke="#263238" stroke-linecap="round" stroke-linejoin="round"/>
<path d="M143 229.7C142.922 229.611 142.835 229.53 142.74 229.46L143.85 227.34L143.4 223.34L141.93 222.57C141.93 222.57 143.73 220.79 143.62 219.37C143.601 218.946 143.695 218.525 143.894 218.15C144.093 217.776 144.388 217.461 144.75 217.24L144.27 214.6L143.46 214.17C142.66 213.75 143.15 211.54 143.15 211.54L139.73 212.21L138.8 215.81L135.32 216.7C134.848 216.36 134.454 215.922 134.166 215.417C133.878 214.911 133.702 214.349 133.65 213.77C133.71 212.1 134.35 212.44 134.35 212.44H137.57L139.57 208.64L139.16 206.81L137.72 206.05" stroke="#263238" stroke-linecap="round" stroke-linejoin="round"/>
<path d="M137.63 206.05C137.79 206.14 136.76 201.5 136.76 201.5C136.76 201.5 135.48 198.11 134.08 197.5C132.68 196.89 129.52 199.04 129.52 199.04L125.99 199.54L125.19 203.78" stroke="#263238" stroke-linecap="round" stroke-linejoin="round"/>
<path d="M151.84 233.08L151 235.66C149.667 234.847 148.403 233.993 147.21 233.1L151.16 229.2L150.82 224.93C150.82 224.93 150.09 223.35 151.49 223.66C152.072 223.803 152.684 223.772 153.249 223.571C153.814 223.37 154.308 223.008 154.67 222.53C155.49 221.6 155.39 221.2 157.51 222.32C159.63 223.44 159.77 224.19 160.08 225.05C160.39 225.91 156.43 231.98 156.43 231.98L157.83 232.72C157.83 232.72 157.01 234.62 158.4 235.03L151.84 233.08Z" stroke="#263238" stroke-linecap="round" stroke-linejoin="round"/>
<path d="M196.79 201.45L199.25 200.68L201.4 202.85C201.4 202.85 205.65 203.4 203.99 205.25C202.33 207.1 199.16 207.08 199.16 207.08L198 209.26L196 206.83L195 204.83L195.75 203.39L196.79 201.45Z" stroke="#263238" stroke-linecap="round" stroke-linejoin="round"/>
<path d="M200.32 192.17C199.817 192.768 199.448 193.467 199.24 194.22L199.08 195.16L195.08 193.06L197.26 188.93L200.32 192.17Z" stroke="#263238" stroke-linecap="round" stroke-linejoin="round"/>
<path d="M417.33 428.05C411.97 432.51 370.68 460.85 311.76 456.28C308.59 429.46 296.5 319.28 310.25 302C310.25 302 343.61 286.09 374.34 292.77C405.07 299.45 417.03 305.85 419.22 311.39C420.88 315.58 418.51 393.6 417.33 428.05Z" fill="#263238"/>
<path d="M373.32 304.54C355.62 319.87 332.82 316.63 333.32 304.86C333.4 303.02 335.37 300.74 335.37 300.74L334.68 299.68L331.68 295.15C329.49 291.76 326.75 287.5 324.84 284.4C323.24 281.76 363.13 257.22 363.13 271.33C363.13 291.21 372.89 294.95 372.89 294.95C376.57 296.43 380 298.77 373.32 304.54Z" fill="white" stroke="#263238" stroke-linecap="round" stroke-linejoin="round"/>
<path d="M384.51 334.9C384.51 334.9 380.94 347.14 382.63 350.65" stroke="white" stroke-linecap="round" stroke-linejoin="round"/>
<path d="M380.34 299.36C380.34 311.17 345.11 322.74 334.79 310.89" stroke="white" stroke-linecap="round" stroke-linejoin="round"/>
<path d="M351.36 285.73C351.36 285.73 349 294.63 338 301.58C337.475 300.679 336.628 300.011 335.63 299.71C335.299 299.656 334.961 299.656 334.63 299.71L331.63 295.18C337.32 291.08 351.36 285.73 351.36 285.73Z" fill="#263238"/>
<path d="M356.3 274.79C356.3 274.79 356.18 283.57 354.3 285.36C340.35 298.74 326.71 299.8 324.46 296.27C309.31 272.51 312.89 266.27 311.35 262.2C308.62 255.06 305.27 243.4 306.75 236.34C310.05 220.57 339.75 208.34 355.39 224.2C362.89 231.79 365.26 248.26 363.68 261.98" fill="white"/>
<path d="M356.3 274.79C356.3 274.79 356.18 283.57 354.3 285.36C340.35 298.74 326.71 299.8 324.46 296.27C309.31 272.51 312.89 266.27 311.35 262.2C308.62 255.06 305.27 243.4 306.75 236.34C310.05 220.57 339.75 208.34 355.39 224.2C362.89 231.79 365.26 248.26 363.68 261.98" stroke="#263238" stroke-linecap="round" stroke-linejoin="round"/>
<path d="M313.26 254.86C313.26 254.86 309.09 252.99 308.19 255.22" stroke="#263238" stroke-linecap="round" stroke-linejoin="round"/>
<path d="M323.37 255C323.37 255 332.04 251.37 335.94 255.78" stroke="#263238" stroke-linecap="round" stroke-linejoin="round"/>
<path d="M333 261.15C333.14 262.45 332.51 263.58 331.58 263.69C330.65 263.8 329.79 262.81 329.65 261.51C329.51 260.21 330.14 259.07 331.07 258.97C332 258.87 332.82 259.85 333 261.15Z" fill="#263238"/>
<path d="M316 261.54C316.15 262.84 315.51 263.98 314.58 264.08C313.65 264.18 312.79 263.21 312.65 261.91C312.51 260.61 313.14 259.47 314.07 259.37C315 259.27 315.84 260.24 316 261.54Z" fill="#263238"/>
<path d="M316.42 258.12C317.63 260.07 316.97 263.4 315.37 267.97C313.77 272.54 315.18 274.19 321.32 274.65" fill="white"/>
<path d="M316.42 258.12C317.63 260.07 316.97 263.4 315.37 267.97C313.77 272.54 315.18 274.19 321.32 274.65" stroke="#263238" stroke-linecap="round" stroke-linejoin="round"/>
<path d="M321.32 282.56C321.32 282.56 329.32 281.83 332.98 279.82" stroke="#263238" stroke-linecap="round" stroke-linejoin="round"/>
<path d="M372 237.22C372 231.28 366.14 219.09 355.86 217.72C349.95 211.54 341.53 209.27 331.31 211.62C307.69 217.04 300.5 240.36 299.47 244.22C299.37 244.58 299.32 244.78 299.32 244.78L305.64 243.18L302.92 248.49L306.23 250.68L305.47 251.52L309.31 255.22L308.11 248.46C308.85 244.1 313.87 238 313.87 238C312.038 240.375 310.896 243.208 310.57 246.19C312.57 241 324.57 236.19 324.57 236.19C320.68 239.35 318.57 245.53 318.57 245.53C322.27 240.97 330.94 238.02 336.49 236.45C338.36 240.96 341.33 245.67 345.57 248.28C349.57 250.74 349.43 255.82 349.43 255.82C353.734 258.812 356.904 263.166 358.43 268.18L363.27 274.8C363.27 274.8 372 264.09 372 237.22Z" fill="#263238"/>
<path d="M351.63 257.52C350.01 254.05 355.89 244.65 360.06 245.81C362.4 246.47 365.46 250.74 366.06 255.22C366.66 259.7 363.49 268.22 360.11 270.07C357.96 271.27 356.19 268 356.19 268" fill="white"/>
<path d="M351.63 257.52C350.01 254.05 355.89 244.65 360.06 245.81C362.4 246.47 365.46 250.74 366.06 255.22C366.66 259.7 363.49 268.22 360.11 270.07C357.96 271.27 356.19 268 356.19 268" stroke="#263238" stroke-linecap="round" stroke-linejoin="round"/>
<path d="M96.51 427.25L209.5 400.83L445.18 428.05L384.5 469.55L96.51 427.25Z" fill="white"/>
<path d="M96.51 427.25L209.5 400.83L445.18 428.05" fill="white"/>
<path d="M96.51 427.25L209.5 400.83L445.18 428.05" stroke="#263238" stroke-linecap="round" stroke-linejoin="round"/>
<path d="M194.29 432.55L240.03 412.33L297.86 415.32L272.14 437.31L194.29 432.55Z" fill="white" stroke="#263238" stroke-linecap="round" stroke-linejoin="round"/>
<path d="M312.48 301C297.81 307 294.65 320.49 269.72 373.8C269.72 373.8 258.65 376.07 252.72 389.52C246.79 402.97 256.72 413.59 268.15 413.23C268.15 413.23 272.74 417.23 282.15 416.82C291.56 416.41 333.15 352.77 333.15 352.77L312.48 301Z" fill="#263238"/>
<path d="M274.09 376.93C280.65 382.77 284.42 391.34 282.42 400.84" stroke="white" stroke-linecap="round" stroke-linejoin="round"/>
<path d="M280.42 379.74C280.42 379.74 288.48 381.5 289.73 391.82" stroke="white" stroke-linecap="round" stroke-linejoin="round"/>
<path d="M304 349.54C300.192 340.144 298.876 329.924 300.18 319.87" stroke="white" stroke-linecap="round" stroke-linejoin="round"/>
<path d="M302.86 335.94C302.25 340.14 306.59 362.5 306.56 386.01" stroke="white" stroke-linecap="round" stroke-linejoin="round"/>
<path d="M412.52 305.42C430.87 314.64 433.05 343.01 415.74 376.93C403.51 400.87 386.63 436.22 375.95 438.59C365.27 440.96 354.85 434.31 354.85 434.31C354.85 434.31 345.85 433.89 343.13 427.49C335.69 410 354.6 387.9 362 393.19C362 393.19 385.76 341.52 390.09 338.26" fill="#263238"/>
<path d="M341.43 416.86C339 404.79 358 390.55 362 393.19C362 393.19 376.11 393.98 378.22 403.74" stroke="white" stroke-linecap="round" stroke-linejoin="round"/>
<path d="M393.12 419.43C401.38 404.86 415.74 376.93 415.74 376.93" stroke="white" stroke-linecap="round" stroke-linejoin="round"/>
<path d="M362 393.19C362 393.19 371.89 387.27 379.28 392.87" stroke="white" stroke-linecap="round" stroke-linejoin="round"/>
<path d="M365.38 386C365.38 386 370.84 374 376.38 363C381.92 352 394.6 335.71 399.87 334.92" stroke="white" stroke-linecap="round" stroke-linejoin="round"/>
<path d="M261.16 407.57C259.972 407.512 258.812 407.195 257.76 406.64C240.76 397.77 227.54 383.11 219.58 372.59C216.485 368.569 213.637 364.365 211.05 360L215.13 342.52C215.13 342.52 218.97 352.52 234.4 362.35C249.83 372.18 268.16 375.42 274.09 385.35C279.34 394 270.09 408 261.16 407.57Z" fill="white"/>
<mask id="mask1_41_258" style="mask-type:luminance" maskUnits="userSpaceOnUse" x="211" y="342" width="65" height="66">
<path d="M261.16 407.57C259.972 407.512 258.812 407.195 257.76 406.64C240.76 397.77 227.54 383.11 219.58 372.59C216.485 368.569 213.637 364.365 211.05 360L215.13 342.52C215.13 342.52 218.97 352.52 234.4 362.35C249.83 372.18 268.16 375.42 274.09 385.35C279.34 394 270.09 408 261.16 407.57Z" fill="white"/>
</mask>
<g mask="url(#mask1_41_258)">
<path opacity="0.4" d="M261.16 407.57C260.97 406.306 260.635 405.067 260.16 403.88C256.59 394.94 234.99 377.17 234.99 377.17C229.85 377.01 224.2 374.87 219.6 372.59C216.498 368.57 213.643 364.365 211.05 360L215.13 342.52C215.13 342.52 218.97 352.52 234.4 362.35C249.83 372.18 268.16 375.42 274.09 385.35C279.34 394 270.09 408 261.16 407.57Z" fill="white"/>
</g>
<path d="M261.16 407.57C259.972 407.512 258.812 407.195 257.76 406.64C240.76 397.77 227.54 383.11 219.58 372.59C216.485 368.569 213.637 364.365 211.05 360L215.13 342.52C215.13 342.52 218.97 352.52 234.4 362.35C249.83 372.18 268.16 375.42 274.09 385.35C279.34 394 270.09 408 261.16 407.57Z" stroke="#263238" stroke-linecap="round" stroke-linejoin="round"/>
<path d="M222.66 358.94C222.66 358.94 220.55 368.26 214.99 366.17C211.99 365.04 206.21 356.08 205.12 351.56L222.66 358.94Z" fill="white" stroke="#263238" stroke-linecap="round" stroke-linejoin="round"/>
<path d="M198.15 301.55L202.69 299.21C202.69 299.21 215.52 299.32 223.48 305.79C230.71 311.67 234.38 320.88 234.38 320.88C234.38 320.88 262.47 305.37 291.16 314.27L302.86 379.48L249.07 383L215.5 351.11L198.15 301.55Z" fill="white" stroke="#263238" stroke-linecap="round" stroke-linejoin="round"/>
<path d="M306.56 382.09C306.56 382.09 300.25 381.9 291.81 382.18C279.05 382.58 261.42 384.02 253.36 388.71L252.98 388.58L245.6 386L245.45 385.78C244.09 383.78 233.12 368.03 217.45 361.62L195.29 299.7C195.29 299.7 218.29 300.7 230.86 321.48L237.17 323.76C237.17 323.76 274.72 312.64 295.74 316.64L306.56 382.09Z" fill="white"/>
<mask id="mask2_41_258" style="mask-type:luminance" maskUnits="userSpaceOnUse" x="195" y="299" width="112" height="90">
<path d="M306.56 382.09C306.56 382.09 300.25 381.9 291.81 382.18C279.05 382.58 261.42 384.02 253.36 388.71L252.98 388.58L245.6 386L245.45 385.78C244.09 383.78 233.12 368.03 217.45 361.62L195.29 299.7C195.29 299.7 218.29 300.7 230.86 321.48L237.17 323.76C237.17 323.76 274.72 312.64 295.74 316.64L306.56 382.09Z" fill="white"/>
</mask>
<g mask="url(#mask2_41_258)">
<path opacity="0.3" d="M245.45 385.79C244.09 383.79 233.12 368.04 217.45 361.63L195.29 299.71C195.29 299.71 218.29 300.71 230.86 321.49L245.45 385.79Z" fill="black" fill-opacity="0.7"/>
<path opacity="0.3" d="M291.81 382.18C279.05 382.58 261.42 384.02 253.36 388.71L252.98 388.58L238.24 326C238.24 326 250.3 323.29 254.01 324.66C254 324.68 278.52 342.77 291.81 382.18Z" fill="black" fill-opacity="0.7"/>
</g>
<path d="M306.56 382.09C306.56 382.09 300.25 381.9 291.81 382.18C279.05 382.58 261.42 384.02 253.36 388.71L252.98 388.58L245.6 386L245.45 385.78C244.09 383.78 233.12 368.03 217.45 361.62L195.29 299.7C195.29 299.7 218.29 300.7 230.86 321.48L237.17 323.76C237.17 323.76 274.72 312.64 295.74 316.64L306.56 382.09Z" stroke="#263238" stroke-linecap="round" stroke-linejoin="round"/>
<path d="M237.19 323.77L251.66 383.8" stroke="#263238" stroke-linecap="round" stroke-linejoin="round"/>
<path d="M245.6 386.01L231.54 326.02" stroke="#263238" stroke-linecap="round" stroke-linejoin="round"/>
<path d="M209.88 360.05C206.67 359.16 200.2 339.87 203.16 331.56C203.16 331.56 206.68 325.45 208.16 325.03C210.4 324.38 219.44 324.57 219 326.09C218 329.61 211.06 329.55 211.06 329.55L208.81 333.67L208.9 335.94C208.9 335.94 212.17 333.56 213.37 333.63C213.99 333.63 217.19 335.23 219.73 336.57C221.9 337.72 223.23 338.35 222.73 339.39C221.12 342.85 214.27 340.39 214.27 340.39L211.69 344.28C211.69 344.28 214.18 344.71 215.27 344.83C216.36 344.95 225.41 350.98 225.14 351.73C224.07 354.67 215.49 351.49 215.49 351.49L213.97 352.76C213.97 352.76 220.29 354.39 220.97 354.63C221.97 355 225.82 357.96 225.76 358.3C225.3 360.9 219.99 358.99 219.99 358.99L215.34 358.8C214.632 359.425 213.78 359.865 212.86 360.08" fill="white"/>
<path d="M209.88 360.05C206.67 359.16 200.2 339.87 203.16 331.56C203.16 331.56 206.68 325.45 208.16 325.03C210.4 324.38 219.44 324.57 219 326.09C218 329.61 211.06 329.55 211.06 329.55L208.81 333.67L208.9 335.94C208.9 335.94 212.17 333.56 213.37 333.63C213.99 333.63 217.19 335.23 219.73 336.57C221.9 337.72 223.23 338.35 222.73 339.39C221.12 342.85 214.27 340.39 214.27 340.39L211.69 344.28C211.69 344.28 214.18 344.71 215.27 344.83C216.36 344.95 225.41 350.98 225.14 351.73C224.07 354.67 215.49 351.49 215.49 351.49L213.97 352.76C213.97 352.76 220.29 354.39 220.97 354.63C221.97 355 225.82 357.96 225.76 358.3C225.3 360.9 219.99 358.99 219.99 358.99L215.34 358.8C214.632 359.425 213.78 359.865 212.86 360.08" stroke="#263238" stroke-linecap="round" stroke-linejoin="round"/>
<path d="M208.86 335.94C208.86 335.94 205.86 338.46 205.09 339.19C204.32 339.92 204.51 342.24 204.51 342.24" stroke="#263238" stroke-linecap="round" stroke-linejoin="round"/>
<path d="M206.69 347.36C206.69 349.9 208.39 351.44 209.17 352.26C209.95 353.08 207.92 355.31 210.17 356.91" stroke="#263238" stroke-linecap="round" stroke-linejoin="round"/>
<path d="M354.81 427.87C348.46 429.6 341.56 418.44 333.14 406.26C327.58 398.26 321.36 389.73 314.21 384.26C313.64 383.83 313.06 383.41 312.48 383.01L316.66 362.01C325.34 366.56 330.72 373.85 339.73 381.34C354.23 393.41 367.08 400.82 370.64 406.16C374.2 411.5 365.69 424.9 354.81 427.87Z" fill="white"/>
<mask id="mask3_41_258" style="mask-type:luminance" maskUnits="userSpaceOnUse" x="312" y="362" width="60" height="67">
<path d="M354.81 427.87C348.46 429.6 341.56 418.44 333.14 406.26C327.58 398.26 321.36 389.73 314.21 384.26C313.64 383.83 313.06 383.41 312.48 383.01L316.66 362.01C325.34 366.56 330.72 373.85 339.73 381.34C354.23 393.41 367.08 400.82 370.64 406.16C374.2 411.5 365.69 424.9 354.81 427.87Z" fill="white"/>
</mask>
<g mask="url(#mask3_41_258)">
<path opacity="0.4" d="M333.14 406.25C327.58 398.25 321.36 389.72 314.21 384.25C315.152 384.298 316.094 384.155 316.98 383.83C316.98 383.83 328.28 393 333.14 406.25Z" fill="white"/>
</g>
<path d="M354.81 427.87C348.46 429.6 341.56 418.44 333.14 406.26C327.58 398.26 321.36 389.73 314.21 384.26C313.64 383.83 313.06 383.41 312.48 383.01L316.66 362.01C325.34 366.56 330.72 373.85 339.73 381.34C354.23 393.41 367.08 400.82 370.64 406.16C374.2 411.5 365.69 424.9 354.81 427.87Z" stroke="#263238" stroke-linecap="round" stroke-linejoin="round"/>
<path d="M319 382.18C318.566 382.956 317.85 383.536 317 383.8C316.774 383.889 316.544 383.965 316.31 384.03H316.12C309.41 385.78 294.31 382.14 294.31 382.14C294.31 382.14 284.42 377.44 283.82 376.33C283.402 375.45 283.031 374.549 282.71 373.63L282.44 372.84C282.44 372.84 278.88 370.84 278.44 369.28C278 367.72 277.25 367.28 279.44 367C281.63 366.72 293.44 367 293.44 367L280.59 361.76C280.59 361.76 272.08 357.47 271.29 355.96C270.5 354.45 269.51 353.45 273.86 354.05C278.21 354.65 287.71 357.41 287.71 357.41L295.2 359L287.76 355.83C287.76 355.83 273.12 354.06 275.89 349.51H284.2C288.908 349.718 293.59 350.313 298.2 351.29C300.62 352.03 316.62 361.97 316.62 361.97" fill="white"/>
<mask id="mask4_41_258" style="mask-type:luminance" maskUnits="userSpaceOnUse" x="270" y="349" width="49" height="36">
<path d="M319 382.18C318.566 382.956 317.85 383.536 317 383.8C316.774 383.889 316.544 383.965 316.31 384.03H316.12C309.41 385.78 294.31 382.14 294.31 382.14C294.31 382.14 284.42 377.44 283.82 376.33C283.402 375.45 283.031 374.549 282.71 373.63L282.44 372.84C282.44 372.84 278.88 370.84 278.44 369.28C278 367.72 277.25 367.28 279.44 367C281.63 366.72 293.44 367 293.44 367L280.59 361.76C280.59 361.76 272.08 357.47 271.29 355.96C270.5 354.45 269.51 353.45 273.86 354.05C278.21 354.65 287.71 357.41 287.71 357.41L295.2 359L287.76 355.83C287.76 355.83 273.12 354.06 275.89 349.51H284.2C288.908 349.718 293.59 350.313 298.2 351.29C300.62 352.03 316.62 361.97 316.62 361.97" fill="white"/>
</mask>
<g mask="url(#mask4_41_258)">
<path opacity="0.4" d="M316.1 384.07C309.39 385.82 294.29 382.18 294.29 382.18C294.29 382.18 284.4 377.48 283.8 376.37C283.382 375.491 283.011 374.589 282.69 373.67L294.83 375C294.405 375.765 294.182 376.625 294.182 377.5C294.182 378.375 294.405 379.235 294.83 380C296.18 382.43 311.56 384.89 316.1 384.07Z" fill="white"/>
</g>
<path d="M319 382.18C318.566 382.956 317.85 383.536 317 383.8C316.774 383.889 316.544 383.965 316.31 384.03H316.12C309.41 385.78 294.31 382.14 294.31 382.14C294.31 382.14 284.42 377.44 283.82 376.33C283.402 375.45 283.031 374.549 282.71 373.63L282.44 372.84C282.44 372.84 278.88 370.84 278.44 369.28C278 367.72 277.25 367.28 279.44 367C281.63 366.72 293.44 367 293.44 367L280.59 361.76C280.59 361.76 272.08 357.47 271.29 355.96C270.5 354.45 269.51 353.45 273.86 354.05C278.21 354.65 287.71 357.41 287.71 357.41L295.2 359L287.76 355.83C287.76 355.83 273.12 354.06 275.89 349.51H284.2C288.908 349.718 293.59 350.313 298.2 351.29C300.62 352.03 316.62 361.97 316.62 361.97" stroke="#263238" stroke-linecap="round" stroke-linejoin="round"/>
<path d="M282.42 372.88L297.03 375.03" stroke="#263238" stroke-linecap="round" stroke-linejoin="round"/>
<path d="M136.78 417.62L173.4 428.62L240.4 413.33C240.4 413.33 199.48 401.71 199.1 402C198.72 402.29 136.78 417.62 136.78 417.62Z" fill="white"/>
<mask id="mask5_41_258" style="mask-type:luminance" maskUnits="userSpaceOnUse" x="136" y="401" width="105" height="28">
<path d="M136.78 417.62L173.4 428.62L240.4 413.33C240.4 413.33 199.48 401.71 199.1 402C198.72 402.29 136.78 417.62 136.78 417.62Z" fill="white"/>
</mask>
<g mask="url(#mask5_41_258)">
<path opacity="0.3" d="M136.78 417.62L173.4 428.62L240.4 413.33C240.4 413.33 199.48 401.71 199.1 402C198.72 402.29 136.78 417.62 136.78 417.62Z" fill="black" fill-opacity="0.7"/>
</g>
<path d="M136.78 417.62L173.4 428.62L240.4 413.33C240.4 413.33 199.48 401.71 199.1 402C198.72 402.29 136.78 417.62 136.78 417.62Z" stroke="#263238" stroke-linecap="round" stroke-linejoin="round"/>
<path d="M137.31 404.72C134.74 404.9 134.1 414.16 136.78 417.62L195.94 405.34L200.68 394.12L137.31 404.72Z" fill="white"/>
<mask id="mask6_41_258" style="mask-type:luminance" maskUnits="userSpaceOnUse" x="135" y="394" width="66" height="24">
<path d="M137.31 404.72C134.74 404.9 134.1 414.16 136.78 417.62L195.94 405.34L200.68 394.12L137.31 404.72Z" fill="white"/>
</mask>
<g mask="url(#mask6_41_258)">
<path opacity="0.3" d="M137.31 404.72C134.74 404.9 134.1 414.16 136.78 417.62L195.94 405.34L200.68 394.12L137.31 404.72Z" fill="black" fill-opacity="0.7"/>
</g>
<path d="M137.31 404.72C134.74 404.9 134.1 414.16 136.78 417.62L195.94 405.34L200.68 394.12L137.31 404.72Z" stroke="#263238" stroke-linecap="round" stroke-linejoin="round"/>
<path d="M237.53 404.59C237.53 404.59 236.65 409.46 237.22 412.46L173.33 426.92L139.65 417C139.65 417 136.15 410.81 139.2 406L200.74 395.55L237.53 404.59Z" fill="white" stroke="#263238" stroke-linecap="round" stroke-linejoin="round"/>
<path d="M137.31 404.72L200.68 394.12L240.03 404.09L173.85 417.28L137.31 404.72Z" fill="white" stroke="#263238" stroke-linecap="round" stroke-linejoin="round"/>
<path d="M139.56 410.64L173.07 420.62L227.92 409.58" stroke="#263238" stroke-linecap="round" stroke-linejoin="round"/>
<path d="M237.04 410.6L178.06 423.18" stroke="#263238" stroke-linecap="round" stroke-linejoin="round"/>
<path d="M140.35 414.57C140.86 414.62 165.61 422.24 165.61 422.24" stroke="#263238" stroke-linecap="round" stroke-linejoin="round"/>
<path d="M232.22 408.29L236.91 407.53" stroke="#263238" stroke-linecap="round" stroke-linejoin="round"/>
<path d="M171.98 424.09L169.49 423.53" stroke="#263238" stroke-linecap="round" stroke-linejoin="round"/>
<path d="M139.2 406C140.511 407.511 141.27 409.422 141.352 411.421C141.434 413.42 140.834 415.387 139.65 417C138.554 415.392 137.931 413.509 137.852 411.564C137.772 409.62 138.239 407.692 139.2 406Z" fill="#263238"/>
<mask id="mask7_41_258" style="mask-type:luminance" maskUnits="userSpaceOnUse" x="137" y="406" width="5" height="11">
<path d="M139.2 406C140.511 407.511 141.27 409.422 141.352 411.421C141.434 413.42 140.834 415.387 139.65 417C138.554 415.392 137.931 413.509 137.852 411.564C137.772 409.62 138.239 407.692 139.2 406Z" fill="white"/>
</mask>
<g mask="url(#mask7_41_258)">
<path opacity="0.3" d="M139.2 406C140.511 407.511 141.27 409.422 141.352 411.421C141.434 413.42 140.834 415.387 139.65 417C138.554 415.392 137.931 413.509 137.852 411.564C137.772 409.62 138.239 407.692 139.2 406Z" fill="white" fill-opacity="0.7"/>
</g>
<path d="M139.2 406C140.511 407.511 141.27 409.422 141.352 411.421C141.434 413.42 140.834 415.387 139.65 417C138.554 415.392 137.931 413.509 137.852 411.564C137.772 409.62 138.239 407.692 139.2 406Z" stroke="#263238" stroke-linecap="round" stroke-linejoin="round"/>
<path d="M276.07 420.62L340.02 423.24L333.79 445.25L255.12 442.25L276.07 420.62Z" fill="white"/>
<mask id="mask8_41_258" style="mask-type:luminance" maskUnits="userSpaceOnUse" x="255" y="420" width="86" height="26">
<path d="M276.07 420.62L340.02 423.24L333.79 445.25L255.12 442.25L276.07 420.62Z" fill="white"/>
</mask>
<g mask="url(#mask8_41_258)">
<path opacity="0.4" d="M276.07 420.62L340.02 423.24L333.79 445.25L255.12 442.25L276.07 420.62Z" fill="white"/>
</g>
<path d="M276.07 420.62L340.02 423.24L333.79 445.25L255.12 442.25L276.07 420.62Z" stroke="#263238" stroke-linecap="round" stroke-linejoin="round"/>
</svg>